<svg width="95" height="22" viewBox="0 0 95 22" fill="none" xmlns="http://www.w3.org/2000/svg">
<path d="M79.9909 8.07208V13.9282L81.4549 15.3922H87.311L88.775 13.9282V8.07208L87.311 6.60806H81.4549L79.9909 8.07208ZM74.1348 16.8562V5.14403L78.5268 0.751953H90.2391L94.6311 5.14403V16.8562L90.2391 21.2483H78.5268L74.1348 16.8562Z" fill="#FCFCFC"/>
<path d="M55.567 11.0001V21.2483H49.7109V0.751953H54.103L64.3512 11.0001V0.751953H70.2073V21.2483H65.8152L55.567 11.0001Z" fill="#FCFCFC"/>
<path d="M25.2871 11.0001V0.751953H31.1432V8.07208L32.6072 9.53611H38.4633L39.9274 8.07208V0.751953H45.7835V11.0001L41.3914 15.3922H38.4633V21.2483H32.6072V15.3922H29.6792L25.2871 11.0001Z" fill="#FCFCFC"/>
<path d="M0.863281 5.14403L5.25536 0.751953H21.3596V6.60806H8.18341L7.4514 7.34007L8.18341 8.07208H16.9676L21.3596 12.4642V16.8562L16.9676 21.2483H0.863281V15.3922H14.0395L14.7715 14.6602L14.0395 13.9282H5.25536L0.863281 9.53611V5.14403Z" fill="#FCFCFC"/>
</svg>
